<?xml version="1.0" standalone="no"?><!DOCTYPE svg PUBLIC "-//W3C//DTD SVG 1.1//EN" "http://www.w3.org/Graphics/SVG/1.1/DTD/svg11.dtd"><svg t="1779185399498" class="icon" viewBox="0 0 1024 1024" version="1.1" xmlns="http://www.w3.org/2000/svg" p-id="13529" xmlns:xlink="http://www.w3.org/1999/xlink" width="200" height="200"><path d="M575.982681 127.996151m31.999037 0l383.988454 0q31.999038 0 31.999038 31.999038l0 0q0 31.999038-31.999038 31.999038l-383.988454 0q-31.999038 0-31.999037-31.999038l0 0q0-31.999038 31.999037-31.999038Z" p-id="13530"></path><path d="M639.980756 319.990378m31.999038 0l255.992302 0q31.999038 0 31.999038 31.999038l0 0q0 31.999038-31.999038 31.999038l-255.992302 0q-31.999038 0-31.999038-31.999038l0 0q0-31.999038 31.999038-31.999038Z" p-id="13531"></path><path d="M242.908251 63.998076c4.337647 0 8.746404 0 13.084051 0.568871a138.44917 138.44917 0 0 1 93.579409 82.201973c55.180563 103.747991 43.660909 152.884292-27.945827 197.611836-5.048737 3.342122-23.252634 14.221795-24.88814 15.21732-17.421698 10.808564 12.088525 82.984171 80.637575 183.247823C440.093433 634.576474 494.634016 689.757037 518.028868 689.757037a11.093 11.093 0 0 0 5.688717-1.422179l24.745923-15.146212a243.619341 243.619341 0 0 1 25.883666-14.221794 111.783305 111.783305 0 0 1 46.434159-10.950782c39.323262 0 78.21987 24.959249 126.0051 80.495357a122.307433 122.307433 0 0 1 37.118884 127.996152 158.928554 158.928554 0 0 1-74.522203 71.606735c-2.631032 1.564397-25.741448 14.221795-31.714602 18.772769a98.912581 98.912581 0 0 1-53.047294 13.084051c-107.30344 0-279.813808-124.085158-409.801011-314.30166C60.300409 419.54294 19.981621 177.345778 114.9121 118.680876l12.515179-8.035314 13.510705-8.817513A156.43974 156.43974 0 0 1 242.908251 63.998076m0-63.998076a220.437816 220.437816 0 0 0-140.226894 50.345153L92.441665 56.887178l-11.732981 7.679769c-26.381429 16.426173-60.513736 49.776281-74.379985 115.267645-26.950301 127.142844 34.132307 324.185807 155.657541 501.95824 66.344672 97.063748 145.062305 181.256772 227.548714 243.477123 59.802646 45.01198 149.328843 98.699254 234.65961 98.699255a161.559586 161.559586 0 0 0 86.824056-23.323743l1.635506-0.995526 1.208853-0.853308c3.768776-2.488814 16.923936-9.955256 21.332692-12.44407l3.626557-2.133269a223.495502 223.495502 0 0 0 101.685832-99.125908l2.631032-5.119846 1.706615-5.5465a186.518836 186.518836 0 0 0-52.691749-191.212028c-40.81655-47.07414-96.850421-99.552562-171.728169-99.552562A175.283618 175.283618 0 0 0 547.539091 600.373058h-1.35107q-14.221795 7.110897-27.874718 15.288429c-17.492807-16.497282-47.856339-49.776281-88.459562-109.578927a730.573588 730.573588 0 0 1-66.202454-113.774356C486.02983 311.457301 452.324177 204.651624 407.525524 119.463074A203.158336 203.158336 0 0 0 272.134039 2.631032l-5.333173-1.422179-5.404282-0.426654C255.281213 0 248.881405 0 242.908251 0z" p-id="13532"></path></svg>