<?xml version="1.0" standalone="no"?><!DOCTYPE svg PUBLIC "-//W3C//DTD SVG 1.1//EN" "http://www.w3.org/Graphics/SVG/1.1/DTD/svg11.dtd"><svg t="1779185323810" class="icon" viewBox="0 0 1024 1024" version="1.1" xmlns="http://www.w3.org/2000/svg" p-id="10626" xmlns:xlink="http://www.w3.org/1999/xlink" width="200" height="200"><path d="M490.666667 85.333333c-191.36 0-341.333333 93.76-341.333334 213.333334v426.666666c0 119.573333 149.973333 213.333333 341.333334 213.333334s341.333333-93.76 341.333333-213.333334V298.666667c0-119.573333-149.973333-213.333333-341.333333-213.333334z m277.333333 640c0 13.973333-3.733333 27.52-10.88 40.426667-2.453333 4.693333-5.44 9.386667-8.96 13.866667C706.986667 834.666667 605.653333 874.666667 490.666667 874.666667s-216.32-40-257.493334-95.04c-3.52-4.48-6.506667-9.173333-8.96-13.866667C217.066667 752.853333 213.333333 739.306667 213.333333 725.333333v-87.786666c2.346667 2.133333 4.693333 4.16 7.146667 6.08C285.013333 695.573333 383.466667 725.333333 490.666667 725.333333s205.653333-29.76 270.186666-81.706666c2.453333-1.92 4.8-3.946667 7.146667-6.08V725.333333z m0-213.333333c0 36.266667-25.706667 64.426667-47.253333 81.706667C668.16 636.053333 582.186667 661.333333 490.666667 661.333333s-177.493333-25.28-230.08-67.626666C239.04 576.426667 213.333333 548.266667 213.333333 512V424.426667C274.773333 477.866667 375.146667 512 490.666667 512s215.893333-34.133333 277.333333-87.573333V512zM490.666667 448C340.373333 448 213.333333 379.626667 213.333333 298.666667s127.04-149.333333 277.333334-149.333334 277.333333 68.373333 277.333333 149.333334S640.96 448 490.666667 448z" p-id="10627"></path><path d="M233.173333 779.626667c-3.52-4.48-6.506667-9.173333-8.96-13.866667 0.426667 0.32 0.746667 0.64 1.066667 0.96 3.626667 3.626667 6.293333 8.106667 7.893333 12.906667zM757.12 765.76c-2.453333 4.693333-5.44 9.386667-8.96 13.866667 1.6-4.8 4.266667-9.28 7.893333-12.906667 0.32-0.32 0.64-0.64 1.066667-0.96z" p-id="10628"></path></svg>