<?xml version="1.0" standalone="no"?><!DOCTYPE svg PUBLIC "-//W3C//DTD SVG 1.1//EN" "http://www.w3.org/Graphics/SVG/1.1/DTD/svg11.dtd"><svg t="1779185873539" class="icon" viewBox="0 0 1024 1024" version="1.1" xmlns="http://www.w3.org/2000/svg" p-id="15932" xmlns:xlink="http://www.w3.org/1999/xlink" width="200" height="200"><path d="M813.935 991.447c0 0-604.771 0-604.771 0-49.6 0-89.949-36.306-89.949-80.931 0 0 0-797.382 0-797.382 0-44.625 40.349-80.931 89.949-80.931 0 0 480.553 0 480.553 0 0 0 214.196 175.942 214.196 175.942 0 0 0 702.371 0 702.371 0 44.625-40.349 80.931-89.978 80.931zM209.164 91.171c-16.815 0-31.011 10.036-31.011 21.964 0 0 0 797.382 0 797.382 0 11.898 14.197 21.964 31.011 21.964 0 0 604.771 0 604.771 0 16.815 0 31.011-10.065 31.011-21.964 0 0 0-663.709 0-663.709 0 0-165.789 0-165.789 0 0 0 0-146.996 0-146.996 0 0-10.531-8.64-10.531-8.64 0 0-459.462 0-459.462 0zM772.975 371.258c0 9.774-7.913 17.687-17.687 17.687 0 0-259.345 0-259.345 0-9.774 0-17.687-7.912-17.687-17.687 0-9.774 7.912-17.687 17.687-17.687 0 0 259.345 0 259.345 0 9.774 0 17.687 7.912 17.687 17.687zM367.011 460.044c0 0-44.305 0-44.305 0-36.742 0-66.618-29.876-66.618-66.618 0 0 0-44.305 0-44.305 0-36.742 29.876-66.618 66.618-66.618 0 0 44.305 0 44.305 0 36.713 0 66.589 29.876 66.589 66.618 0 0 0 44.305 0 44.305 0 36.742-29.876 66.618-66.589 66.618zM398.225 349.12c0-17.222-13.993-31.244-31.215-31.244 0 0-44.305 0-44.305 0-17.251 0-31.244 14.022-31.244 31.244 0 0 0 44.305 0 44.305 0 17.251 13.993 31.244 31.244 31.244 0 0 44.305 0 44.305 0 17.222 0 31.215-13.993 31.215-31.244 0 0 0-44.305 0-44.305zM286.255 523.694c0 0 465.629 0 465.629 0 9.774 0 17.687 7.913 17.687 17.687 0 9.774-7.912 17.687-17.687 17.687 0 0-465.629 0-465.629 0-9.774 0-17.687-7.912-17.687-17.687 0-9.774 7.912-17.687 17.687-17.687zM286.255 640.611c0 0 465.629 0 465.629 0 9.774 0 17.687 7.912 17.687 17.687 0 9.745-7.912 17.687-17.687 17.687 0 0-465.629 0-465.629 0-9.774 0-17.687-7.942-17.687-17.687 0-9.774 7.912-17.687 17.687-17.687zM286.255 763.404c0 0 259.345 0 259.345 0 9.774 0 17.687 7.912 17.687 17.687 0 9.745-7.912 17.687-17.687 17.687 0 0-259.345 0-259.345 0-9.774 0-17.687-7.942-17.687-17.687 0-9.774 7.912-17.687 17.687-17.687z" fill="#272636" p-id="15933"></path></svg>