<?xml version="1.0" standalone="no"?><!DOCTYPE svg PUBLIC "-//W3C//DTD SVG 1.1//EN" "http://www.w3.org/Graphics/SVG/1.1/DTD/svg11.dtd"><svg t="1779185998697" class="icon" viewBox="0 0 1024 1024" version="1.1" xmlns="http://www.w3.org/2000/svg" p-id="17170" xmlns:xlink="http://www.w3.org/1999/xlink" width="200" height="200"><path d="M648.517818 647.330909l-0.535273 0.488727-1.233454 1.070546-1.140364 1.163636-103.726545 103.493818-74.449455-74.449454 127.348364-126.929455 74.589091 74.356364-20.852364 20.805818z m-209.896727 135.540364l7.796364-42.496 34.39709 34.443636-42.193454 8.052364z m248.622545-91.997091l52.48-52.317091h0.023273a16.989091 16.989091 0 0 0 0-24.064l-132.887273-132.421818a17.128727 17.128727 0 0 0-24.157091 0l-181.178181 180.596363-28.741819 156.648728a25.576727 25.576727 0 0 0 30.045091 29.649454L558.545455 819.2l128.162909-127.953455c0.139636-0.139636 0.372364-0.186182 0.535272-0.34909z m-168.424727-20.782546a23.249455 23.249455 0 1 0 32.907636 32.907637l69.818182-69.818182a23.272727 23.272727 0 0 0-32.907636-32.907636l-69.818182 69.818181zM907.636364 349.090909H581.818182v69.818182h325.818182v488.727273H581.818182v69.818181h325.818182a69.818182 69.818182 0 0 0 69.818181-69.818181V418.909091a69.818182 69.818182 0 0 0-69.818181-69.818182z m-523.636364-46.545454h-186.181818a34.909091 34.909091 0 1 0 0 69.818181h186.181818a34.909091 34.909091 0 0 0 0-69.818181zM116.363636 116.363636h349.090909v81.454546a34.909091 34.909091 0 0 0 69.818182 0V116.363636a69.818182 69.818182 0 0 0-69.818182-69.818181H116.363636a69.818182 69.818182 0 0 0-69.818181 69.818181v791.272728a69.818182 69.818182 0 0 0 69.818181 69.818181h418.909091v-69.818181H116.363636V116.363636z m384 209.454546a34.909091 34.909091 0 0 0-34.909091 34.909091V418.909091h69.818182v-58.181818a34.909091 34.909091 0 0 0-34.909091-34.909091z m-116.363636-162.909091h-186.181818a34.909091 34.909091 0 1 0 0 69.818182h186.181818a34.909091 34.909091 0 0 0 0-69.818182z" fill="#231814" p-id="17171"></path></svg>