<?xml version="1.0" standalone="no"?><!DOCTYPE svg PUBLIC "-//W3C//DTD SVG 1.1//EN" "http://www.w3.org/Graphics/SVG/1.1/DTD/svg11.dtd"><svg t="1713710044453" class="icon" viewBox="0 0 1024 1024" version="1.1" xmlns="http://www.w3.org/2000/svg" p-id="1701" xmlns:xlink="http://www.w3.org/1999/xlink" width="200" height="200"><path d="M699.488045 745.6015l30.754805-286.604782s0.592593-28.549461-29.779653-33.53774c-23.433662-3.833099-38.098453 27.191749-38.098453 27.191749L545.481481 684.399437" fill="#FFC9C9" p-id="1702"></path><path d="M937.762775 616.371308l5.100797-316.624473s-9.849039-33.657759-35.90811-33.725269c-26.081575-0.067511-38.968589 33.53774-38.968589 33.53774l-73.646507 266.726676-247.216128 116.005626-2.857946 155.761838 192.277543 1.117674 1.042663-38.91608 136.138772-92.654477c-0.007501 0.007501 69.168308-24.311299 64.037505-91.229255z" fill="#FFC9C9" p-id="1703"></path><path d="M539.488045 1024l-16.555087-186.104079 234.959213 1.275199 50.835443 181.408346z" fill="#81C5E8" p-id="1704"></path><path d="M478.511017 684.399437l-116.86826-231.741209s-14.672293-31.024848-38.098453-27.191749c-30.372246 4.988279-29.772152 33.53774-29.772152 33.53774l30.747304 286.604782" fill="#FFC9C9" p-id="1705"></path><path d="M150.282232 707.608064l136.138771 92.654477 1.042663 38.916081 192.270042-1.117675-2.857946-155.761838-247.193624-116.013127-73.654009-266.726676s-12.894515-33.59775-38.968588-33.53774C90.985466 266.089076 81.136428 299.746835 81.136428 299.746835l5.108298 316.624473c-5.138303 66.917956 64.037506 91.236756 64.037506 91.236756z" fill="#FFC9C9" p-id="1706"></path><path d="M215.272386 1020.579466l50.835443-181.408346 234.951712-1.275199-15.534928 186.104079z" fill="#81C5E8" p-id="1707"></path><path d="M502.229723 487.93624L213.089545 141.472105h580.995781z" fill="#87CBE8" p-id="1708"></path><path d="M213.089545 141.472105L294.327239 0h408.671355l91.086732 141.472105z" fill="#94DFFF" p-id="1709"></path><path d="M563.469292 0l37.50586 141.472105-98.745429 346.464135L794.085326 141.472105 702.998594 0z" fill="#7DBBD6" opacity=".51" p-id="1710"></path><path d="M402.194093 0l-52.508205 141.472105 152.543835 346.464135L213.089545 141.472105 294.327239 0z" fill="#FFFFFF" opacity=".21" p-id="1711"></path></svg>