<?xml version="1.0" standalone="no"?><!DOCTYPE svg PUBLIC "-//W3C//DTD SVG 1.1//EN" "http://www.w3.org/Graphics/SVG/1.1/DTD/svg11.dtd"><svg t="1779185422583" class="icon" viewBox="0 0 1024 1024" version="1.1" xmlns="http://www.w3.org/2000/svg" p-id="13692" xmlns:xlink="http://www.w3.org/1999/xlink" width="200" height="200"><path d="M250.221714 629.613714a29.769143 29.769143 0 1 1 0-59.465143h149.504a29.769143 29.769143 0 0 1 0 59.392H250.148571zM500.882286 423.497143H249.490286a29.696 29.696 0 0 0 0.731428 59.245714h250.002286a29.696 29.696 0 0 0 0.731429-59.245714zM250.221714 336.091429a29.769143 29.769143 0 1 1 0-59.392h274.066286a29.769143 29.769143 0 0 1 0 59.392H250.148571z m501.979429-101.083429L666.185143 148.918857l-59.318857-59.318857H189.659429l-24.210286 0.950857-1.097143 0.146286-0.512 0.146286c-42.934857 10.678857-71.826286 51.2-71.826286 101.083428v640.146286c0 51.638857 26.770286 91.648 68.608 102.034286l0.658286 0.219428 10.386286 0.073143H587.337143v-58.002286H205.750857l-14.189714-0.585143a43.812571 43.812571 0 0 1-41.545143-43.739428V191.926857a43.885714 43.885714 0 0 1 41.984-43.666286l6.802286-0.731428h384l50.249143 50.468571L722.066286 286.72l26.185143 26.112V481.28h57.929142v-192.365714l-53.979428-53.979429z m18.139428 674.084571a9.435429 9.435429 0 0 1-1.682285-0.219428h-0.438857a9.508571 9.508571 0 0 1-1.682286 0.219428c-11.264 0-24.064-12.873143-24.064-24.137142v-113.371429H629.028571c-11.264 0-24.137143-12.873143-24.137142-24.137143 0-11.264 12.873143-24.137143 24.137142-24.137143h113.371429V610.011429a24.137143 24.137143 0 0 1 25.673143-23.990858h0.804571a24.137143 24.137143 0 0 1 25.6 23.990858v113.371428h113.371429c11.337143 0 24.137143 12.873143 24.137143 24.137143 0 11.264-12.8 24.137143-24.137143 24.137143h-113.371429v113.371428c0 11.264-12.873143 24.137143-24.137143 24.137143z" fill="#000000" fill-opacity=".65" p-id="13693"></path></svg>