<?xml version="1.0" standalone="no"?><!DOCTYPE svg PUBLIC "-//W3C//DTD SVG 1.1//EN" "http://www.w3.org/Graphics/SVG/1.1/DTD/svg11.dtd"><svg t="1782536142866" class="icon" viewBox="0 0 1024 1024" version="1.1" xmlns="http://www.w3.org/2000/svg" p-id="3115" xmlns:xlink="http://www.w3.org/1999/xlink" width="200" height="200"><path d="M719.2 480H305.6c-57.6 0-108-41.6-114.4-99.2-7.2-67.2 45.6-124.8 112-124.8H728v64l166.4-96L728 128v64H303.2c-97.6 0-176 78.4-176 176s78.4 176 176 176h413.6c57.6 0 108 41.6 114.4 99.2 8 67.2-45.6 124.8-111.2 124.8H296v-64l-168 98.4L296 896v-64h423.2c97.6 0 176-78.4 176-176s-78.4-176-176-176z" p-id="3116"></path></svg>