<?xml version="1.0" standalone="no"?><!DOCTYPE svg PUBLIC "-//W3C//DTD SVG 1.1//EN" "http://www.w3.org/Graphics/SVG/1.1/DTD/svg11.dtd"><svg t="1779185798570" class="icon" viewBox="0 0 1024 1024" version="1.1" xmlns="http://www.w3.org/2000/svg" p-id="14885" xmlns:xlink="http://www.w3.org/1999/xlink" width="200" height="200"><path d="M322.816 556.544h383.232c56 1.152 101.76 19.52 137.344 55.104 35.584 35.584 53.952 81.344 55.104 137.344V896c-0.576 19.264-6.592 34.688-17.92 46.4-11.392 11.648-26.688 17.472-45.952 17.472H194.176c-19.264 0-34.56-5.824-45.952-17.472-11.392-11.648-17.344-27.136-17.92-46.4v-147.008c1.152-53.056 19.52-97.984 55.104-134.72s81.408-56 137.408-57.728z m-32.384-268.672c1.728 63.616 23.616 116.352 65.6 158.4s94.784 63.872 158.4 65.6c63.552-1.728 116.352-23.616 158.4-65.6s63.872-94.784 65.6-158.4c-1.728-63.552-23.616-116.352-65.6-158.4S577.984 65.664 514.432 63.872c-63.616 1.728-116.352 23.616-158.4 65.6s-63.872 94.848-65.6 158.4zM527.552 896l114.624-115.52c16.32-16.896 24.512-35.904 24.512-56.896s-8.192-38.208-24.512-51.648c-16.896-15.744-35.904-24.064-56.896-24.96s-38.208 5.376-51.648 18.816l-19.264 18.368-19.264-18.368c-16.896-12.8-36.16-19.264-57.728-19.264-21.568 0-40.832 6.4-57.728 19.264-15.744 16.896-23.616 35.712-23.616 56.448s7.872 38.08 23.616 52.032l115.52 121.6c6.4 2.944 12.544 4.352 18.368 4.352 5.824 0.192 10.496-1.28 14.016-4.224z" p-id="14886"></path></svg>