<?xml version="1.0" standalone="no"?><!DOCTYPE svg PUBLIC "-//W3C//DTD SVG 1.1//EN" "http://www.w3.org/Graphics/SVG/1.1/DTD/svg11.dtd"><svg t="1778069254294" class="icon" viewBox="0 0 1024 1024" version="1.1" xmlns="http://www.w3.org/2000/svg" p-id="5450" xmlns:xlink="http://www.w3.org/1999/xlink" width="200" height="200"><path d="M435.126857 73.874286c236.763429 0 431.981714 160.548571 431.981714 363.739428l-0.292571-13.824a95.670857 95.670857 0 0 0-98.742857-21.211428C746.788571 273.115429 607.378286 169.984 435.2 169.984c-187.392 0-336.018286 122.148571-336.018286 267.702857 0 74.898286 51.053714 157.769143 128.585143 212.553143 6.582857 4.681143 11.849143 10.825143 15.36 17.993143 5.924571 12.068571 8.045714 29.403429 6.509714 55.808l-1.828571 21.577143c-0.804571 7.826286-1.901714 16.237714-3.145143 25.307428l-1.097143 7.168 55.222857-27.574857 29.769143-14.409143 23.405715-10.825143 12.580571-5.339428 10.459429-4.096 8.557714-2.852572 7.021714-1.755428a44.544 44.544 0 0 1 5.632-0.804572L512 710.217143l6.729143-0.073143a95.890286 95.890286 0 0 0 41.252571 92.745143c-15.286857 2.267429-31.451429 3.291429-47.981714 3.291428H405.796571l-12.068571 5.339429-34.523429 16.384-45.787428 22.601143-111.323429 56.393143a47.981714 47.981714 0 0 1-69.12-51.419429l3.437715-18.651428 5.851428-34.011429 4.754286-29.622857 3.584-25.307429 1.974857-17.261714 1.316571-15.945143-8.338285-6.582857C63.634286 640.585143 8.777143 546.742857 3.510857 452.461714l-0.365714-14.848c0-203.190857 195.291429-363.739429 431.981714-363.739428zM912.091429 766.025143c-25.307429 20.187429-52.224 43.154286-58.806858 35.547428-10.020571-7.826286 12.946286-32.402286 28.013715-51.931428 12.580571-19.236571 26.770286-38.912 26.770285-62.902857a57.636571 57.636571 0 1 1 57.929143 57.490285c-18.651429 0-37.449143 11.190857-53.833143 21.796572z" p-id="5451"></path><path d="M797.769143 578.998857a64.146286 64.146286 0 0 1-56.539429-37.595428c-8.923429-21.577143-7.021714-44.982857 12.580572-63.341715 19.748571-18.285714 44.470857-18.944 65.974857-10.020571 21.577143 8.923429 35.620571 29.988571 35.620571 53.321143 0 20.041143 11.044571 37.449143 21.504 53.979428 25.161143 30.72 45.129143 50.907429 35.254857 59.099429-4.388571 5.266286-31.817143-13.531429-51.565714-28.306286-19.236571-12.726857-40.813714-27.062857-62.902857-27.062857zM693.979429 619.008c20.48-15.725714 46.592-37.595429 54.491428-31.378286 6.729143 4.315429-13.019429 32.621714-28.013714 51.931429-12.653714 19.163429-22.747429 26.916571-26.477714 60.342857-3.657143 33.499429-26.550857 61.074286-58.441143 61.147429a59.611429 59.611429 0 0 1-59.392-58.148572c-0.073143-31.817143 29.037714-58.587429 59.392-58.587428 30.427429 0 42.057143-14.701714 58.514285-25.307429zM802.157714 811.008c23.405714 0 46.445714 12.580571 55.442286 34.084571a59.538286 59.538286 0 0 1-12.726857 63.926858 60.854857 60.854857 0 0 1-64.731429 12.946285 57.636571 57.636571 0 0 1-35.620571-53.321143 156.379429 156.379429 0 0 0-21.357714-54.125714c-15.506286-21.796571-44.397714-48.64-34.962286-59.245714 5.632-10.24 32.036571 10.605714 51.419428 28.745143 19.017143 12.434286 37.595429 22.528 62.537143 26.989714z" p-id="5452"></path></svg>